<?xml version="1.0" encoding="utf-8"?>
<!-- Generator: Adobe Illustrator 26.5.1, SVG Export Plug-In . SVG Version: 6.00 Build 0)  -->
<svg version="1.1" id="Layer_1" xmlns="http://www.w3.org/2000/svg" xmlns:xlink="http://www.w3.org/1999/xlink" x="0px" y="0px"
	 viewBox="0 0 97.21 107.82" style="enable-background:new 0 0 97.21 107.82;" xml:space="preserve">
<style type="text/css">
	.st0{fill:#FFFFFF;stroke:#231F20;stroke-width:3;stroke-miterlimit:10;}
	.st1{fill:none;stroke:#231F20;stroke-width:3;stroke-miterlimit:10;}
	.st2{fill:#FFFFFF;stroke:#000000;stroke-width:3;stroke-miterlimit:10;}
	.st3{fill:none;stroke:#000000;stroke-width:3;stroke-miterlimit:10;}
</style>
<g>
	<rect x="23.8" y="31.13" class="st0" width="71.91" height="15.29"/>
	<path class="st0" d="M83.15,31.13H36.36c1.34-11.73,11.32-20.82,23.4-20.82C71.85,10.31,81.8,19.4,83.15,31.13z"/>
	<polygon class="st0" points="38.94,102.75 79.95,102.75 84.57,46.79 34.93,46.79 35.33,52.27 	"/>
	<polyline class="st1" points="59.75,30.03 59.75,1.5 72.76,1.5 	"/>
	<g>
		<g>
			<path class="st2" d="M2.87,87.95c-3.31,9.41-0.36,16.28,5.77,18.11c3.4,1.02,15.03-0.66,16.92-10.45
				c1.89-9.79-5.66-32.99-5.66-32.99S6.24,78.36,2.87,87.95z"/>
			<path class="st2" d="M66.99,87.95c3.31,9.41,0.36,16.28-5.77,18.11c-3.4,1.02-15.03-0.66-16.92-10.45
				c-1.89-9.79,5.66-32.99,5.66-32.99S63.62,78.36,66.99,87.95z"/>
			<path class="st2" d="M58.58,92.1v1.36c0,5.13-4.17,9.3-9.3,9.3h-28.5c-5.14,0-9.3-4.17-9.3-9.3V92.1c0-2.78,1.22-5.28,3.16-6.98
				v-9.05c0-11.26,9.13-20.39,20.39-20.39c5.63,0,10.73,2.28,14.42,5.97c3.69,3.69,5.97,8.79,5.97,14.41v9.05
				C57.36,86.81,58.58,89.32,58.58,92.1z"/>
		</g>
		<g>
			<circle class="st3" cx="26.37" cy="80.07" r="0.85"/>
			<circle class="st3" cx="43.5" cy="80.12" r="0.85"/>
			<path class="st3" d="M37.66,87.91c0,1.39-2.73,2.51-2.73,2.51s-2.73-1.13-2.73-2.51s0-2.51,2.73-2.51
				C37.66,85.39,37.66,86.52,37.66,87.91z"/>
			<path class="st3" d="M34.93,90.42c0,2.84-1.94,4.79-3.72,4.79c-1.78,0-3.22-1.08-3.22-4.79"/>
			<path class="st3" d="M34.93,90.42c0,2.84,1.94,4.79,3.72,4.79s3.22-1.08,3.22-4.79"/>
		</g>
	</g>
</g>
</svg>
