<?xml version="1.0" encoding="utf-8"?>
<!-- Generator: Adobe Illustrator 26.5.1, SVG Export Plug-In . SVG Version: 6.00 Build 0)  -->
<svg version="1.1" id="Layer_1" xmlns="http://www.w3.org/2000/svg" xmlns:xlink="http://www.w3.org/1999/xlink" x="0px" y="0px"
	 viewBox="0 0 93.4 83.55" style="enable-background:new 0 0 93.4 83.55;" xml:space="preserve">
<style type="text/css">
	.st0{fill:none;stroke:#231F20;stroke-width:4;stroke-miterlimit:10;}
</style>
<g>
	<path class="st0" d="M18.25,59.95H2.95C2.43,59.95,2,59.53,2,59V24.62c0-0.52,0.43-0.95,0.95-0.95h15.3c0.52,0,0.95,0.43,0.95,0.95
		V59C19.2,59.53,18.77,59.95,18.25,59.95z"/>
	<path class="st0" d="M18.83,23.88l33.7-15.7c0.92-0.44,1.99,0.23,1.99,1.25v64.61c0,1.02-1.06,1.69-1.98,1.26L18.97,59.61"/>
	<path class="st0" d="M92.57,1.82c0,0-22.7,10.25-22.7,11.48c0,1.36,17.24,7.01,17.24,8.31c0,1.3-19.29,10.13-19.29,10.13"/>
	<path class="st0" d="M92.57,81.73c0,0-22.7-10.25-22.7-11.48c0-1.36,17.24-7.01,17.24-8.31c0-1.3-19.29-10.13-19.29-10.13"/>
</g>
</svg>
