<?xml version="1.0" encoding="utf-8"?>
<!-- Generator: Adobe Illustrator 24.2.1, SVG Export Plug-In . SVG Version: 6.00 Build 0)  -->
<svg version="1.1" id="Layer_1" xmlns="http://www.w3.org/2000/svg" xmlns:xlink="http://www.w3.org/1999/xlink" x="0px" y="0px"
	 viewBox="0 0 128.69 103.92" style="enable-background:new 0 0 128.69 103.92;" xml:space="preserve">
<style type="text/css">
	.st0{fill:none;stroke:#231F20;stroke-width:3;stroke-miterlimit:10;}
</style>
<g>
	<path class="st0" d="M115.2,51.96c0,3.23-0.3,6.39-0.89,9.45c-4.42,23.35-24.93,41.01-49.56,41.01c-24.74,0-45.31-17.8-49.62-41.28
		c-0.56-2.97-0.84-6.04-0.84-9.18c0-3.14,0.29-6.21,0.84-9.19C19.45,19.3,40.01,1.5,64.75,1.5c24.63,0,45.13,17.66,49.56,41
		C114.9,45.56,115.2,48.73,115.2,51.96z"/>
	<path class="st0" d="M14.29,51.96c0,3.14,0.28,6.21,0.84,9.18c-1.15,0.46-2.4,0.72-3.72,0.72c-5.47,0-9.91-4.43-9.91-9.9
		s4.44-9.91,9.91-9.91c1.32,0,2.57,0.26,3.72,0.72C14.58,45.75,14.29,48.82,14.29,51.96z"/>
	<path class="st0" d="M127.19,51.96c0,5.47-4.43,9.9-9.91,9.9c-1.04,0-2.03-0.16-2.96-0.45c0.58-3.06,0.89-6.22,0.89-9.45
		s-0.3-6.4-0.89-9.46c0.93-0.29,1.92-0.45,2.96-0.45C122.76,42.04,127.19,46.49,127.19,51.96z"/>
	<g>
		<path class="st0" d="M37.23,46.59c-0.1-0.32-0.19-0.65-0.24-0.99"/>
		<path class="st0" d="M36.98,45.6c-0.07-0.39-0.1-0.79-0.1-1.2c0-3.93,3.18-7.11,7.11-7.11s7.11,3.18,7.11,7.11
			c0,0.77-0.12,1.5-0.35,2.19"/>
	</g>
	<g>
		<path class="st0" d="M77.19,46.59c-0.1-0.32-0.19-0.65-0.24-0.99"/>
		<path class="st0" d="M76.95,45.6c-0.07-0.39-0.1-0.79-0.1-1.2c0-3.93,3.18-7.11,7.11-7.11s7.11,3.18,7.11,7.11
			c0,0.77-0.12,1.5-0.35,2.19"/>
	</g>
	<path class="st0" d="M49.99,60.44c-0.02,0.28-0.04,0.56-0.04,0.84c0,7.82,6.34,14.15,14.15,14.15c7.82,0,14.15-6.34,14.15-14.15
		c0-0.28-0.03-0.56-0.04-0.84C68.91,60.44,59.26,60.44,49.99,60.44z"/>
	<path class="st0" d="M66.69,1.54c0,0,10.49,2.22,10.5,12.48c0.01,10.25-10.26,10.81-10.26,10.81s-9.92,0.62-9.92-8.17
		s7.73-8.19,7.73-8.19s4.9,0.18,4.98,4.89c0.07,4.01-4.98,5.16-4.98,5.16"/>
</g>
</svg>
