<?xml version="1.0" encoding="utf-8"?>
<!-- Generator: Adobe Illustrator 26.5.1, SVG Export Plug-In . SVG Version: 6.00 Build 0)  -->
<svg version="1.1" id="Layer_1" xmlns="http://www.w3.org/2000/svg" xmlns:xlink="http://www.w3.org/1999/xlink" x="0px" y="0px"
	 viewBox="0 0 94.15 104.88" style="enable-background:new 0 0 94.15 104.88;" xml:space="preserve">
<style type="text/css">
	.st0{fill:#FFFFFF;stroke:#231F20;stroke-width:4;stroke-miterlimit:10;}
	.st1{fill:none;stroke:#231F20;stroke-width:4;stroke-miterlimit:10;}
	.st2{fill:#FFFFFF;stroke:#000000;stroke-width:4;stroke-miterlimit:10;}
	.st3{fill:none;stroke:#000000;stroke-width:4;stroke-miterlimit:10;}
</style>
<g>
	<rect x="26.94" y="30.77" class="st0" width="65.21" height="14.84"/>
	<path class="st0" d="M82.25,30.77H36.83c1.3-11.39,10.99-20.21,22.72-20.21C71.28,10.55,80.95,19.38,82.25,30.77z"/>
	<polygon class="st0" points="39.34,99.31 79.14,99.31 83.64,45.6 35.45,45.6 35.83,50.87 	"/>
	<polyline class="st1" points="59.54,29.7 59.54,2 72.17,2 	"/>
	<g>
		<g>
			<path class="st2" d="M3.37,84.51c-3.31,9.41-0.36,16.28,5.77,18.11c3.4,1.02,15.03-0.66,16.92-10.45
				c1.89-9.79-5.66-32.99-5.66-32.99S6.74,74.92,3.37,84.51z"/>
			<path class="st2" d="M67.49,84.51c3.31,9.41,0.36,16.28-5.77,18.11c-3.4,1.02-15.03-0.66-16.92-10.45
				c-1.89-9.79,5.66-32.99,5.66-32.99S64.12,74.92,67.49,84.51z"/>
			<path class="st2" d="M59.08,88.66v1.36c0,5.13-4.17,9.3-9.3,9.3h-28.5c-5.14,0-9.3-4.17-9.3-9.3v-1.36
				c0-2.78,1.22-5.28,3.16-6.98v-9.05c0-11.26,9.13-20.39,20.39-20.39c5.63,0,10.73,2.28,14.42,5.97c3.69,3.69,5.97,8.79,5.97,14.41
				v9.05C57.86,83.38,59.08,85.88,59.08,88.66z"/>
		</g>
		<g>
			<circle class="st3" cx="26.87" cy="76.63" r="0.85"/>
			<circle class="st3" cx="44" cy="76.68" r="0.85"/>
			<path class="st3" d="M38.16,84.47c0,1.39-2.73,2.51-2.73,2.51s-2.73-1.13-2.73-2.51s0-2.51,2.73-2.51
				C38.16,81.95,38.16,83.08,38.16,84.47z"/>
			<path class="st3" d="M35.43,86.98c0,2.84-1.94,4.79-3.72,4.79c-1.78,0-3.22-1.08-3.22-4.79"/>
			<path class="st3" d="M35.43,86.98c0,2.84,1.94,4.79,3.72,4.79s3.22-1.08,3.22-4.79"/>
		</g>
	</g>
</g>
</svg>
