<?xml version="1.0" encoding="utf-8"?>
<!-- Generator: Adobe Illustrator 24.2.1, SVG Export Plug-In . SVG Version: 6.00 Build 0)  -->
<svg version="1.1" id="Layer_1" xmlns="http://www.w3.org/2000/svg" xmlns:xlink="http://www.w3.org/1999/xlink" x="0px" y="0px"
	 viewBox="0 0 56.83 55.18" style="enable-background:new 0 0 56.83 55.18;" xml:space="preserve">
<style type="text/css">
	.st0{fill:none;stroke:#231F20;stroke-width:3;stroke-miterlimit:10;}
</style>
<g>
	<path class="st0" d="M42.86,1.5H13.4c-4.71,0-8.52,3.81-8.52,8.52v38.5h46.51v-38.5C51.38,5.31,47.57,1.5,42.86,1.5z"/>
	<ellipse class="st0" cx="14.64" cy="41.65" rx="1.06" ry="1"/>
	<ellipse class="st0" cx="41.58" cy="41.65" rx="1.06" ry="1"/>
	<path class="st0" d="M15.66,53.68h-2.85c-0.91,0-1.65-0.74-1.65-1.65v-3.51h6.15v3.51C17.31,52.95,16.57,53.68,15.66,53.68z"/>
	<path class="st0" d="M43.67,53.68h-2.85c-0.91,0-1.65-0.74-1.65-1.65v-3.51h6.15v3.51C45.31,52.95,44.58,53.68,43.67,53.68z"/>
	<path class="st0" d="M34.6,9.2H20.46c-0.47,0-0.85-0.38-0.85-0.85v-0.1c0-0.47,0.38-0.85,0.85-0.85H34.6
		c0.47,0,0.85,0.38,0.85,0.85v0.1C35.45,8.82,35.07,9.2,34.6,9.2z"/>
	<path class="st0" d="M3.64,26.58h0.67V12.89H3.64c-1.18,0-2.14,0.96-2.14,2.14v9.42C1.5,25.62,2.46,26.58,3.64,26.58z"/>
	<path class="st0" d="M53.19,26.58h-0.67V12.89h0.67c1.18,0,2.14,0.96,2.14,2.14v9.42C55.33,25.62,54.37,26.58,53.19,26.58z"/>
	<line class="st0" x1="4.88" y1="16" x2="50.52" y2="16"/>
	<line class="st0" x1="4.88" y1="34.78" x2="51.38" y2="34.78"/>
</g>
</svg>
