<?xml version="1.0" encoding="utf-8"?>
<!-- Generator: Adobe Illustrator 24.2.1, SVG Export Plug-In . SVG Version: 6.00 Build 0)  -->
<svg version="1.1" id="Layer_1" xmlns="http://www.w3.org/2000/svg" xmlns:xlink="http://www.w3.org/1999/xlink" x="0px" y="0px"
	 viewBox="0 0 18.4 36" style="enable-background:new 0 0 18.4 36;" xml:space="preserve">
<style type="text/css">
	.st0{fill:none;stroke:#000000;stroke-miterlimit:10;}
</style>
<g>
	<path class="st0" d="M15.2,13.5h-12c-1.5,0-2.7,1.2-2.7,2.7v16.6c0,1.5,1.2,2.7,2.7,2.7h12c1.5,0,2.7-1.2,2.7-2.7V16.2
		C17.9,14.7,16.7,13.5,15.2,13.5z"/>
	<path class="st0" d="M13.9,8.7H4.5c-0.9,0-1.7,0.8-1.7,1.7v1.4c0,0.9,0.8,1.7,1.7,1.7h9.4c0.9,0,1.7-0.8,1.7-1.7v-1.4
		C15.6,9.4,14.8,8.7,13.9,8.7z"/>
	<path class="st0" d="M14.1,8.7H4.3c0-2.1,1.3-3.2,1.9-3.5C6.7,4.9,8,4.3,8,2.7V1.8c0-0.7,0.5-1.3,1.2-1.3c0.7,0,1.2,0.6,1.2,1.3
		v0.9c0,1.5,1.3,2.2,1.9,2.5C12.9,5.5,14.1,6.5,14.1,8.7z"/>
	<line class="st0" x1="0.5" y1="18.3" x2="6.8" y2="18.3"/>
	<line class="st0" x1="0.5" y1="21.4" x2="5.3" y2="21.4"/>
	<line class="st0" x1="0.5" y1="24.5" x2="6.8" y2="24.5"/>
	<line class="st0" x1="0.5" y1="27.6" x2="5.3" y2="27.6"/>
	<line class="st0" x1="0.5" y1="30.6" x2="6.8" y2="30.6"/>
</g>
</svg>
