<?xml version="1.0" encoding="utf-8"?>
<!-- Generator: Adobe Illustrator 24.2.1, SVG Export Plug-In . SVG Version: 6.00 Build 0)  -->
<svg version="1.1" id="Layer_1" xmlns="http://www.w3.org/2000/svg" xmlns:xlink="http://www.w3.org/1999/xlink" x="0px" y="0px"
	 viewBox="0 0 86.71 103.92" style="enable-background:new 0 0 86.71 103.92;" xml:space="preserve">
<style type="text/css">
	.st0{fill:none;stroke:#231F20;stroke-width:3;stroke-miterlimit:10;}
</style>
<g>
	<g>
		<line class="st0" x1="71.29" y1="53.02" x2="71.29" y2="31.82"/>
		<polyline class="st0" points="71.29,55.23 71.29,53.02 71.29,31.82 		"/>
		<line class="st0" x1="56.61" y1="52.94" x2="56.61" y2="16.04"/>
		<line class="st0" x1="56.61" y1="52.94" x2="56.61" y2="16.04"/>
		<line class="st0" x1="41.94" y1="36.01" x2="41.94" y2="16.7"/>
		<polyline class="st0" points="41.94,16.7 41.94,36.01 41.94,48.37 		"/>
	</g>
	<path class="st0" d="M85.21,31.58L84.83,66.3c-0.04,3.49-0.5,6.99-1.56,10.34c-3.71,11.76-13.89,25.78-32.76,25.78
		c-14.11,0-25-9.85-30.93-18.58C19.56,83.83,2.64,55.59,2.64,55.59c-2.26-3.76-1.05-8.65,2.72-10.92c1.28-0.77,2.69-1.14,4.09-1.14
		c2.05,0,4.05,0.79,5.56,2.26c0.36,0.35,0.69,0.74,0.98,1.16l11.29,16.09V16.7c0-4,3.28-7.24,7.33-7.24c2.03,0,3.86,0.8,5.19,2.12
		c1.33,1.31,2.14,3.12,2.14,5.12V8.75c0-4.01,3.29-7.25,7.34-7.25c2.02,0,3.86,0.81,5.18,2.13c1.33,1.3,2.15,3.12,2.15,5.12v7.29
		c0-4.01,3.29-7.25,7.35-7.25c2.02,0,3.86,0.81,5.18,2.13c1.33,1.3,2.15,3.12,2.15,5.12v15.78c0-3.76,3.28-6.8,7.33-6.8
		C83.83,25.02,85.21,29.7,85.21,31.58z"/>
</g>
</svg>
