<?xml version="1.0" encoding="utf-8"?>
<!-- Generator: Adobe Illustrator 24.2.1, SVG Export Plug-In . SVG Version: 6.00 Build 0)  -->
<svg version="1.1" id="Layer_1" xmlns="http://www.w3.org/2000/svg" xmlns:xlink="http://www.w3.org/1999/xlink" x="0px" y="0px"
	 viewBox="0 0 59.32 55.18" style="enable-background:new 0 0 59.32 55.18;" xml:space="preserve">
<style type="text/css">
	.st0{fill:none;stroke:#231F20;stroke-width:3;stroke-miterlimit:10;}
</style>
<g>
	<path class="st0" d="M13.95,53.68H8.51c-1.77,0-3.21-1.44-3.21-3.21v-6.59h11.85v6.59C17.16,52.25,15.72,53.68,13.95,53.68z"/>
	<path class="st0" d="M50.9,53.68h-5.44c-1.77,0-3.21-1.44-3.21-3.21v-6.59H54.1v6.59C54.1,52.25,52.67,53.68,50.9,53.68z"/>
	<line class="st0" x1="58.02" y1="15.01" x2="49.15" y2="15.01"/>
	<line class="st0" x1="10.17" y1="15.01" x2="1.71" y2="15.01"/>
	<circle class="st0" cx="10.26" cy="31.41" r="2.07"/>
	<circle class="st0" cx="49.14" cy="31.41" r="2.07"/>
	<rect x="22.89" y="31.41" class="st0" width="13.54" height="2.07"/>
	<path class="st0" d="M50.92,20.2c-1.05-0.36-2.18-0.56-3.35-0.56H11.75c-1.17,0-2.3,0.2-3.35,0.56l1.77-5.19l3.22-9.48
		c0.82-2.41,3.09-4.03,5.63-4.03h21.27c2.55,0,4.81,1.62,5.63,4.03l3.23,9.48L50.92,20.2z"/>
	<path class="st0" d="M57.82,29.89v13.28H1.5V29.89c0-4.49,2.88-8.3,6.9-9.69c1.05-0.36,2.18-0.56,3.35-0.56h35.82
		c1.17,0,2.3,0.2,3.35,0.56C54.94,21.59,57.82,25.4,57.82,29.89z"/>
</g>
</svg>
