<?xml version="1.0" encoding="utf-8"?>
<!-- Generator: Adobe Illustrator 24.2.1, SVG Export Plug-In . SVG Version: 6.00 Build 0)  -->
<svg version="1.1" id="Layer_1" xmlns="http://www.w3.org/2000/svg" xmlns:xlink="http://www.w3.org/1999/xlink" x="0px" y="0px"
	 viewBox="0 0 92.69 82.64" style="enable-background:new 0 0 92.69 82.64;" xml:space="preserve">
<style type="text/css">
	.st0{fill:none;stroke:#231F20;stroke-width:3;stroke-miterlimit:10;}
</style>
<g>
	<path class="st0" d="M17.75,59.5H2.45c-0.52,0-0.95-0.43-0.95-0.95V24.17c0-0.52,0.43-0.95,0.95-0.95h15.3
		c0.52,0,0.95,0.43,0.95,0.95v34.38C18.7,59.07,18.27,59.5,17.75,59.5z"/>
	<path class="st0" d="M18.33,23.42l33.7-15.7c0.92-0.44,1.99,0.23,1.99,1.25v64.61c0,1.02-1.06,1.69-1.98,1.26L18.47,59.16"/>
	<path class="st0" d="M92.07,1.37c0,0-22.7,10.25-22.7,11.48c0,1.36,17.24,7.01,17.24,8.31S67.33,31.28,67.33,31.28"/>
	<path class="st0" d="M92.07,81.27c0,0-22.7-10.25-22.7-11.48c0-1.36,17.24-7.01,17.24-8.31S67.33,51.36,67.33,51.36"/>
</g>
</svg>
