<?xml version="1.0" encoding="utf-8"?>
<!-- Generator: Adobe Illustrator 24.2.1, SVG Export Plug-In . SVG Version: 6.00 Build 0)  -->
<svg version="1.1" id="Layer_1" xmlns="http://www.w3.org/2000/svg" xmlns:xlink="http://www.w3.org/1999/xlink" x="0px" y="0px"
	 viewBox="0 0 100.45 104.25" style="enable-background:new 0 0 100.45 104.25;" xml:space="preserve">
<style type="text/css">
	.st0{fill:#FFFFFF;stroke:#231F20;stroke-width:3;stroke-miterlimit:10;}
	.st1{fill:none;stroke:#231F20;stroke-width:3;stroke-miterlimit:10;}
	.st2{fill:#FFFFFF;stroke:#000000;stroke-width:3;stroke-miterlimit:10;}
	.st3{fill:none;stroke:#000000;stroke-width:3;stroke-miterlimit:10;}
</style>
<g>
	<rect x="27.04" y="31.13" class="st0" width="71.91" height="15.29"/>
	<path class="st0" d="M86.39,31.13H39.6C40.94,19.4,50.92,10.31,63,10.31C75.09,10.31,85.04,19.4,86.39,31.13z"/>
	<polygon class="st0" points="42.18,102.75 83.18,102.75 87.81,46.79 38.17,46.79 38.56,52.27 	"/>
	<polyline class="st1" points="62.99,30.03 62.99,1.5 76,1.5 	"/>
	<g>
		<g>
			<path class="st2" d="M2.87,84.38c-3.31,9.41-0.36,16.28,5.77,18.11c3.4,1.02,15.03-0.66,16.92-10.45
				c1.89-9.79-5.66-32.99-5.66-32.99S6.24,74.79,2.87,84.38z"/>
			<path class="st3" d="M66.99,84.38c3.31,9.41,0.36,16.28-5.77,18.11c-3.4,1.02-15.03-0.66-16.92-10.45
				c-1.89-9.79,5.66-32.99,5.66-32.99S63.62,74.79,66.99,84.38z"/>
			<path class="st2" d="M58.58,88.53v1.36c0,5.13-4.17,9.3-9.3,9.3h-28.5c-5.14,0-9.3-4.17-9.3-9.3v-1.36
				c0-2.78,1.22-5.28,3.16-6.98V72.5c0-11.26,9.13-20.39,20.39-20.39c5.63,0,10.73,2.28,14.42,5.97c3.69,3.69,5.97,8.79,5.97,14.41
				v9.05C57.36,83.25,58.58,85.75,58.58,88.53z"/>
		</g>
		<g>
			<circle class="st3" cx="26.37" cy="76.5" r="0.85"/>
			<circle class="st3" cx="43.5" cy="76.55" r="0.85"/>
			<path class="st3" d="M37.66,84.34c0,1.39-2.73,2.51-2.73,2.51s-2.73-1.13-2.73-2.51s0-2.51,2.73-2.51
				C37.66,81.82,37.66,82.95,37.66,84.34z"/>
			<path class="st3" d="M34.93,86.85c0,2.84-1.94,4.79-3.72,4.79c-1.78,0-3.22-1.08-3.22-4.79"/>
			<path class="st3" d="M34.93,86.85c0,2.84,1.94,4.79,3.72,4.79s3.22-1.08,3.22-4.79"/>
		</g>
	</g>
</g>
</svg>
