<?xml version="1.0" encoding="utf-8"?>
<!-- Generator: Adobe Illustrator 26.5.0, SVG Export Plug-In . SVG Version: 6.00 Build 0)  -->
<svg version="1.1" id="Layer_1" xmlns="http://www.w3.org/2000/svg" xmlns:xlink="http://www.w3.org/1999/xlink" x="0px" y="0px"
	 viewBox="0 0 16 16" style="enable-background:new 0 0 16 16;" xml:space="preserve">
<style type="text/css">
	.st0{fill:none;stroke:#231F20;stroke-miterlimit:10;}
</style>
<path class="st0" d="M5.6,4.3L7.2,1c0.4-0.7,1.4-0.7,1.7,0l1.5,3.3c0.1,0.3,0.4,0.5,0.7,0.6l3.5,0.6c0.8,0.1,1.1,1.2,0.5,1.7
	l-2.6,2.5c-0.2,0.2-0.3,0.6-0.3,0.9l0.5,3.6c0.1,0.8-0.7,1.4-1.4,1l-3.1-1.8c-0.3-0.2-0.6-0.2-0.9,0l-3.2,1.7
	c-0.7,0.4-1.5-0.3-1.4-1.1l0.7-3.6c0.1-0.3,0-0.7-0.3-0.9L0.8,7C0.2,6.4,0.6,5.4,1.3,5.3l3.5-0.5C5.2,4.8,5.5,4.6,5.6,4.3z"/>
</svg>
