<?xml version="1.0" encoding="utf-8"?>
<!-- Generator: Adobe Illustrator 26.5.0, SVG Export Plug-In . SVG Version: 6.00 Build 0)  -->
<svg version="1.1" id="Layer_1" xmlns="http://www.w3.org/2000/svg" xmlns:xlink="http://www.w3.org/1999/xlink" x="0px" y="0px"
	 viewBox="0 0 15.9 15.9" style="enable-background:new 0 0 15.9 15.9;" xml:space="preserve">
<style type="text/css">
	.st0{fill:#FFDA00;}
</style>
<path class="st0" d="M15.4,7.6c0.4-0.4,0.6-1,0.4-1.5c-0.2-0.6-0.6-1-1.2-1l-3.4-0.6c-0.2-0.1-0.3-0.2-0.4-0.3L9.4,0.8
	C9.1,0.3,8.7,0,8.2,0C7.6,0,7,0.3,6.7,0.8L5.1,4.1l0,0.1c0,0.1-0.2,0.2-0.4,0.2L1.2,4.8c-0.5,0.1-1,0.5-1.1,1C-0.1,6.4,0,7,0.4,7.4
	l2.3,2.5l0.1,0.1C2.9,10,3,10.2,2.9,10.3L2.2,14c-0.1,0.6,0.2,1.2,0.7,1.5c0.4,0.3,1,0.3,1.4,0.1l3.2-1.7c0.1-0.1,0.2-0.1,0.4,0
	l3.1,1.8c0.2,0.1,0.5,0.2,0.7,0.2c0.3,0,0.5-0.1,0.8-0.2c0.5-0.3,0.7-0.9,0.6-1.5l-0.5-3.5c0-0.2,0.1-0.5,0.1-0.5L15.4,7.6z"/>
</svg>
